<?xml version="1.0" standalone="no"?>
<!DOCTYPE svg PUBLIC "-//W3C//DTD SVG 20010904//EN"
 "http://www.w3.org/TR/2001/REC-SVG-20010904/DTD/svg10.dtd">
<svg version="1.0" xmlns="http://www.w3.org/2000/svg"
 width="1024.000000pt" height="1024.000000pt" viewBox="0 0 1024.000000 1024.000000"
 preserveAspectRatio="xMidYMid meet">

<g transform="translate(0.000000,1024.000000) scale(0.100000,-0.100000)"
fill="#000000" stroke="none">
<path d="M4995 9377 c-60 -35 -121 -70 -135 -78 -14 -8 -32 -19 -40 -25 -8 -6
-40 -25 -70 -41 -30 -17 -163 -93 -295 -170 -456 -265 -1495 -868 -1840 -1068
-226 -131 -829 -481 -996 -579 -20 -11 -134 -77 -253 -146 -119 -68 -216 -129
-216 -135 0 -7 75 -55 168 -107 92 -53 381 -218 642 -368 261 -150 485 -277
497 -283 18 -8 68 18 340 175 175 102 570 331 878 510 308 179 759 441 1002
582 l443 257 647 -372 c357 -204 673 -385 703 -402 30 -16 62 -36 71 -43 8 -8
19 -14 23 -14 4 0 71 -38 149 -84 78 -46 241 -140 362 -209 121 -69 323 -184
448 -256 126 -72 237 -131 248 -131 15 0 312 166 557 311 36 21 54 32 352 204
140 81 269 156 285 166 17 10 51 30 78 45 26 15 47 32 47 38 0 12 -24 26 -805
474 -302 173 -746 428 -985 565 -239 137 -460 263 -490 280 -30 16 -62 36 -71
43 -8 8 -18 14 -22 14 -4 0 -138 76 -299 169 -698 403 -1292 741 -1302 741 -6
0 -60 -28 -121 -63z"/>
<path d="M6158 5643 l-3 -1277 -60 -34 c-33 -19 -127 -74 -210 -122 -82 -49
-287 -167 -454 -264 l-304 -176 -269 155 c-278 161 -312 181 -388 223 -109 60
-327 187 -353 204 l-27 19 0 1232 c0 678 -3 1249 -7 1270 -5 30 -10 38 -24 34
-9 -3 -122 -65 -251 -140 -211 -122 -799 -464 -873 -507 -73 -42 -467 -270
-528 -306 -38 -21 -81 -46 -95 -55 -51 -31 -109 -64 -205 -119 -61 -34 -96
-60 -94 -69 2 -12 143 -104 197 -128 8 -4 148 -84 310 -178 162 -94 346 -199
408 -234 l112 -63 0 -442 c0 -244 3 -551 7 -682 l6 -240 501 -287 c276 -157
600 -343 721 -413 121 -70 236 -136 255 -147 19 -11 49 -28 65 -38 17 -11 37
-22 45 -26 8 -3 119 -67 246 -140 126 -73 238 -133 247 -133 15 0 226 121
1552 891 l530 308 -3 674 c-4 616 -3 674 13 687 9 7 118 72 243 145 744 430
773 448 770 463 -2 12 -796 481 -878 518 -8 4 -82 46 -165 94 -82 48 -171 98
-196 112 -79 44 -94 53 -109 64 -8 6 -44 27 -80 47 -36 19 -191 108 -345 196
-153 89 -285 161 -292 161 -10 0 -13 -248 -15 -1277z"/>
<path d="M8420 5411 c-195 -114 -465 -271 -600 -350 l-245 -142 4 -702 c3
-586 1 -704 -10 -714 -14 -11 -283 -169 -614 -360 -105 -60 -374 -217 -600
-348 -225 -131 -534 -310 -685 -398 -151 -87 -288 -167 -305 -177 -16 -9 -70
-41 -120 -70 -49 -28 -95 -56 -101 -61 -6 -5 -15 -5 -20 0 -5 5 -211 125 -459
266 -247 142 -493 283 -545 313 -52 30 -120 69 -150 85 -30 17 -102 58 -160
92 -58 34 -186 108 -285 165 -99 57 -283 162 -410 235 -126 73 -273 157 -325
187 l-95 54 -6 195 c-4 106 -7 426 -8 709 l-1 516 -457 262 c-252 144 -469
269 -483 277 -109 64 -274 155 -281 155 -10 0 -13 -2340 -2 -2644 5 -168 9
-199 22 -204 9 -3 95 -51 191 -107 96 -57 274 -159 395 -228 121 -69 555 -317
965 -552 410 -235 770 -441 800 -458 30 -16 62 -36 71 -43 8 -8 19 -14 23 -14
4 0 87 -47 184 -103 329 -193 1022 -587 1030 -587 5 0 96 51 203 113 107 62
240 140 297 173 57 32 116 66 130 75 39 23 69 41 344 201 518 300 816 473
1213 703 576 335 950 552 1237 717 l248 143 0 1418 c0 1343 -1 1417 -17 1416
-10 -1 -178 -94 -373 -208z"/>
</g>
</svg>
