<?xml version="1.0" standalone="no"?>
<!DOCTYPE svg PUBLIC "-//W3C//DTD SVG 20010904//EN"
 "http://www.w3.org/TR/2001/REC-SVG-20010904/DTD/svg10.dtd">
<svg version="1.0" xmlns="http://www.w3.org/2000/svg"
 width="1024.000000pt" height="1024.000000pt" viewBox="0 0 1024.000000 1024.000000"
 preserveAspectRatio="xMidYMid meet">

<g transform="translate(0.000000,1024.000000) scale(0.100000,-0.100000)"
fill="#000000" stroke="none">
<path d="M4810 10229 c-831 -46 -1685 -320 -2415 -777 -641 -401 -1197 -957
-1606 -1607 -681 -1081 -933 -2382 -705 -3635 207 -1133 777 -2149 1636 -2914
998 -889 2303 -1350 3637 -1287 896 43 1726 303 2488 779 779 487 1425 1197
1843 2027 775 1537 726 3367 -130 4854 -238 412 -511 765 -860 1107 -411 404
-819 691 -1350 948 -796 387 -1635 554 -2538 505z m1120 -1257 c426 -245 960
-551 1185 -680 1536 -881 1961 -1125 1968 -1132 8 -7 -69 -54 -468 -285 -115
-67 -351 -204 -524 -304 -284 -166 -316 -182 -338 -172 -14 6 -300 169 -636
363 -337 193 -839 481 -1117 641 -278 159 -587 336 -688 394 -111 64 -190 103
-201 100 -10 -2 -200 -110 -422 -239 -366 -213 -600 -349 -1509 -876 -157 -91
-377 -219 -490 -285 -113 -66 -209 -120 -215 -120 -10 0 -1302 738 -1318 753
-5 4 56 45 135 90 79 46 280 163 448 260 285 166 653 379 2430 1410 382 222
751 436 819 476 106 62 127 71 145 62 12 -6 370 -211 796 -456z m497 -2198
c678 -390 1554 -893 1695 -973 65 -36 116 -70 115 -76 -2 -5 -37 -29 -78 -53
-41 -23 -270 -156 -509 -295 l-435 -253 0 -679 -1 -679 -49 -29 c-80 -47
-1600 -929 -1827 -1060 l-206 -119 -294 169 c-161 93 -629 362 -1040 598
l-748 428 0 211 c0 116 -3 423 -7 682 l-6 470 -321 184 c-177 102 -408 234
-513 295 -106 60 -192 113 -190 117 1 5 79 52 172 106 94 54 551 319 1016 590
466 270 853 494 861 497 13 5 16 -78 21 -617 4 -343 7 -916 7 -1275 l0 -652
93 -54 c325 -191 936 -537 948 -536 8 0 244 134 524 297 l510 298 -4 1278 c-4
1184 -3 1279 12 1273 9 -3 124 -68 254 -143z m2376 -2570 l6 -1412 -117 -67
c-144 -83 -1312 -760 -2022 -1173 -289 -168 -624 -362 -745 -432 -121 -71
-348 -202 -504 -293 l-283 -165 -532 305 c-292 168 -803 462 -1136 652 -333
191 -920 528 -1306 750 l-701 402 -8 1410 c-4 776 -5 1412 -3 1415 4 3 527
-293 1090 -618 l138 -79 2 -707 3 -707 370 -212 c204 -117 514 -296 690 -397
176 -101 561 -322 854 -490 l535 -307 145 85 c81 46 281 163 446 258 326 190
774 449 1430 830 l420 244 2 708 c1 390 3 710 5 711 3 3 233 137 923 536 159
93 290 167 291 166 1 -1 4 -637 7 -1413z"/>
</g>
</svg>
